<svg width="24" height="24" viewBox="0 0 24 24" fill="none" xmlns="http://www.w3.org/2000/svg">
<path d="M8.39062 22.3906C8.13281 22.6484 7.80469 22.7891 7.41797 22.7891C6.64453 22.7891 6.02344 22.1797 6.02344 21.4062C6.02344 21.0195 6.1875 20.668 6.45703 20.3984L14.6602 12.3828L6.45703 4.39062C6.1875 4.12109 6.02344 3.75781 6.02344 3.38281C6.02344 2.60938 6.64453 2 7.41797 2C7.80469 2 8.13281 2.14062 8.39062 2.39844L17.5078 11.3047C17.8359 11.6094 17.9883 11.9844 18 12.3945C18 12.8047 17.8359 13.1562 17.5078 13.4727L8.39062 22.3906Z" fill="#5d5fef"/>
</svg>
